<svg width="122" height="123" xmlns="http://www.w3.org/2000/svg" xmlns:xlink="http://www.w3.org/1999/xlink" xml:space="preserve" overflow="hidden"><defs><clipPath id="clip0"><rect x="579" y="298" width="122" height="123"/></clipPath></defs><g clip-path="url(#clip0)" transform="translate(-579 -298)"><path d="M640 298.05C648.261 298.05 656.143 299.71 663.324 302.701 670.785 305.821 677.506 310.382 683.127 316.053 688.748 321.724 693.279 328.485 696.369 336.006 699.35 343.247 700.99 351.179 700.99 359.5 700.99 367.821 699.35 375.753 696.369 382.994 693.279 390.515 688.748 397.276 683.127 402.947 677.506 408.618 670.785 413.179 663.324 416.299 656.133 419.3 648.261 420.95 640 420.95 631.739 420.95 623.857 419.29 616.676 416.299 609.215 413.179 602.494 408.618 596.873 402.947 591.242 397.276 586.711 390.505 583.621 382.994 580.64 375.753 579 367.821 579 359.5 579 351.179 580.64 343.247 583.621 336.006 586.711 328.485 591.242 321.724 596.863 316.053 602.484 310.382 609.205 305.821 616.666 302.701 623.857 299.71 631.739 298.05 640 298.05L640 298.05ZM615.716 307.411C614.116 308.172 612.555 309.002 611.035 309.902 609.555 310.782 608.115 311.732 606.725 312.732L610.965 314.463C611.465 314.663 611.835 315.053 612.025 315.513 612.215 315.973 612.235 316.503 612.035 317.003 611.835 317.503 611.445 317.873 610.985 318.063 610.525 318.253 609.995 318.273 609.495 318.073L603.194 315.503C602.584 316.023 601.984 316.553 601.404 317.093 600.804 317.653 600.214 318.223 599.623 318.813 598.943 319.493 598.293 320.194 597.653 320.904 597.063 321.564 596.483 322.234 595.923 322.924L600.233 323.474C600.764 323.544 601.224 323.824 601.534 324.214 601.844 324.604 601.994 325.124 601.924 325.654 601.854 326.185 601.574 326.645 601.184 326.955 600.794 327.265 600.273 327.415 599.743 327.345L593.212 326.515C592.212 327.945 591.282 329.435 590.412 330.955 589.572 332.426 588.802 333.946 588.091 335.496L592.192 334.936C592.722 334.866 593.242 335.016 593.632 335.316 594.032 335.616 594.312 336.076 594.383 336.606L594.383 336.606C594.453 337.136 594.302 337.646 594.002 338.046 593.702 338.447 593.242 338.727 592.712 338.797L586.401 339.667C585.801 341.297 585.281 342.957 584.831 344.658 584.401 346.288 584.041 347.938 583.751 349.618L587.411 348.088C587.911 347.878 588.442 347.888 588.912 348.078 589.372 348.268 589.772 348.638 589.972 349.128 590.182 349.628 590.172 350.158 589.982 350.629 589.792 351.089 589.422 351.489 588.932 351.689L583.171 354.109C583.091 354.989 583.031 355.869 582.991 356.76 582.951 357.66 582.931 358.58 582.931 359.5 582.931 360.37 582.951 361.23 582.991 362.08 583.021 362.861 583.071 363.641 583.141 364.411L586.211 362.04C586.641 361.71 587.161 361.59 587.651 361.65 588.151 361.71 588.622 361.97 588.952 362.39 589.282 362.821 589.402 363.341 589.342 363.831 589.282 364.331 589.022 364.801 588.602 365.131L583.701 368.922C583.961 370.662 584.321 372.382 584.761 374.062 585.191 375.713 585.691 377.343 586.251 378.933L588.612 375.833C588.932 375.403 589.402 375.153 589.902 375.083 590.392 375.013 590.912 375.133 591.342 375.463L591.342 375.463C591.772 375.783 592.022 376.253 592.092 376.753 592.162 377.243 592.042 377.763 591.712 378.193L587.941 383.154C588.662 384.764 589.452 386.334 590.312 387.865 591.152 389.355 592.052 390.805 593.012 392.205L594.513 388.535C594.713 388.035 595.103 387.665 595.563 387.475 596.023 387.285 596.553 387.265 597.053 387.465 597.553 387.665 597.923 388.055 598.113 388.515 598.303 388.975 598.323 389.505 598.123 390.005L595.733 395.856C596.343 396.606 596.963 397.336 597.603 398.046 598.263 398.776 598.933 399.497 599.633 400.197 600.203 400.777 600.784 401.337 601.374 401.877 601.904 402.367 602.454 402.857 603.004 403.327L603.524 399.257C603.594 398.726 603.874 398.266 604.264 397.956 604.654 397.646 605.174 397.496 605.704 397.566 606.234 397.636 606.695 397.916 607.005 398.306 607.315 398.696 607.465 399.216 607.395 399.747L606.585 406.148C608.015 407.188 609.495 408.168 611.025 409.078 612.495 409.958 614.016 410.768 615.566 411.509L614.986 407.288C614.916 406.758 615.066 406.238 615.366 405.848 615.666 405.448 616.126 405.167 616.656 405.097L616.656 405.097C617.186 405.027 617.696 405.177 618.096 405.478 618.496 405.778 618.776 406.238 618.847 406.768L619.737 413.309C621.387 413.939 623.067 414.499 624.787 414.969 626.438 415.429 628.118 415.809 629.818 416.119L628.128 412.079C627.918 411.579 627.938 411.048 628.128 410.588 628.318 410.128 628.688 409.728 629.178 409.528L629.178 409.528C629.678 409.318 630.208 409.338 630.668 409.528 631.129 409.718 631.529 410.088 631.729 410.578L634.319 416.759C635.239 416.849 636.169 416.919 637.109 416.969 638.06 417.019 639.02 417.039 639.99 417.039 640.84 417.039 641.68 417.019 642.52 416.989 643.281 416.959 644.041 416.909 644.811 416.839L642.09 413.319C641.76 412.889 641.64 412.369 641.7 411.879 641.76 411.388 642.01 410.918 642.43 410.588L642.45 410.568C642.87 410.248 643.391 410.118 643.881 410.188 644.371 410.248 644.841 410.498 645.171 410.918L649.322 416.269C651.082 415.979 652.822 415.599 654.532 415.149 656.203 414.709 657.853 414.189 659.463 413.599L655.893 410.878C655.463 410.548 655.203 410.088 655.142 409.588 655.072 409.098 655.193 408.578 655.523 408.148L655.523 408.148C655.843 407.718 656.313 407.468 656.813 407.398 657.303 407.328 657.823 407.448 658.253 407.778L663.654 411.879C665.264 411.138 666.844 410.328 668.375 409.438 669.865 408.578 671.325 407.648 672.725 406.658L668.595 404.967C668.095 404.767 667.725 404.377 667.534 403.917 667.344 403.457 667.324 402.927 667.525 402.427L667.525 402.427C667.725 401.927 668.115 401.567 668.575 401.367 669.035 401.177 669.565 401.157 670.065 401.357L676.306 403.907C677.006 403.327 677.696 402.727 678.366 402.117 679.056 401.487 679.727 400.847 680.387 400.177 680.997 399.567 681.587 398.936 682.167 398.306 682.687 397.726 683.207 397.136 683.717 396.526L679.336 395.966C678.806 395.896 678.346 395.616 678.036 395.226 677.726 394.836 677.576 394.316 677.646 393.786 677.716 393.256 677.996 392.795 678.386 392.485 678.776 392.175 679.296 392.025 679.827 392.095L686.478 392.935C687.498 391.495 688.458 390.005 689.348 388.465 690.208 386.984 690.998 385.454 691.728 383.894L687.368 384.484C686.838 384.554 686.318 384.404 685.928 384.104 685.537 383.804 685.247 383.344 685.177 382.814L685.177 382.814C685.107 382.284 685.257 381.774 685.557 381.374 685.857 380.974 686.318 380.693 686.848 380.623L693.479 379.723C694.089 378.073 694.639 376.393 695.099 374.672 695.549 373.022 695.919 371.342 696.219 369.642L692.169 371.342C691.668 371.552 691.138 371.542 690.668 371.352 690.208 371.162 689.808 370.792 689.608 370.302 689.398 369.802 689.408 369.272 689.598 368.802 689.788 368.341 690.158 367.941 690.648 367.741L696.829 365.151C696.919 364.231 696.989 363.301 697.029 362.36 697.079 361.41 697.099 360.45 697.099 359.49 697.099 358.64 697.079 357.8 697.049 356.96 697.019 356.199 696.969 355.429 696.909 354.669L693.389 357.4C692.959 357.73 692.439 357.85 691.948 357.79 691.458 357.73 690.988 357.48 690.658 357.06L690.648 357.04C690.328 356.62 690.198 356.099 690.268 355.609 690.328 355.119 690.578 354.649 690.998 354.319L696.369 350.158C696.079 348.388 695.719 346.638 695.269 344.918 694.829 343.237 694.319 341.577 693.739 339.957L690.968 343.607C690.648 344.037 690.178 344.288 689.678 344.358 689.188 344.428 688.668 344.307 688.238 343.977L688.238 343.977C687.808 343.647 687.558 343.187 687.488 342.687 687.418 342.197 687.538 341.677 687.868 341.247L692.049 335.746C691.308 334.106 690.498 332.506 689.618 330.955 688.758 329.435 687.828 327.965 686.838 326.545L685.057 330.905C684.857 331.405 684.467 331.775 684.007 331.965 683.547 332.156 683.017 332.176 682.527 331.975L682.517 331.975C682.017 331.775 681.657 331.385 681.457 330.925 681.267 330.465 681.247 329.935 681.447 329.445L684.117 322.924C683.537 322.214 682.947 321.524 682.337 320.844 681.707 320.144 681.067 319.463 680.407 318.793 679.786 318.173 679.146 317.553 678.496 316.963 677.906 316.423 677.296 315.883 676.686 315.363L676.076 320.174C676.006 320.704 675.726 321.164 675.336 321.474 674.946 321.774 674.436 321.934 673.906 321.864L673.886 321.864C673.355 321.794 672.905 321.514 672.605 321.124 672.305 320.734 672.145 320.224 672.215 319.693L673.105 312.692 673.125 312.572C671.665 311.522 670.155 310.542 668.595 309.642 667.084 308.762 665.534 307.952 663.954 307.211L664.624 312.142C664.694 312.672 664.544 313.192 664.244 313.582 663.944 313.983 663.484 314.263 662.954 314.333L662.954 314.333C662.424 314.403 661.914 314.253 661.514 313.953 661.113 313.652 660.833 313.192 660.763 312.662 660.493 310.342 660.073 307.992 659.813 305.671 659.803 305.621 659.803 305.571 659.803 305.531L659.803 305.471C658.133 304.851 656.423 304.311 654.672 303.841 652.932 303.421 651.222 303.051 649.492 302.751L651.422 307.351C651.632 307.852 651.622 308.382 651.432 308.852 651.242 309.312 650.872 309.712 650.382 309.912 649.882 310.122 649.352 310.112 648.881 309.922 648.421 309.732 648.021 309.362 647.821 308.872L645.091 302.361C645.071 302.321 645.061 302.271 645.041 302.231L645.011 302.181C644.201 302.111 643.381 302.051 642.55 302.021 641.71 301.981 640.86 301.961 640 301.961 639.02 301.961 638.06 301.981 637.1 302.031 636.209 302.071 635.319 302.141 634.449 302.231L637.47 306.131C637.8 306.561 637.92 307.081 637.86 307.571 637.8 308.072 637.54 308.542 637.12 308.872 636.689 309.202 636.169 309.322 635.679 309.262 635.179 309.202 634.709 308.942 634.379 308.522L630.058 302.951 629.988 302.851C628.218 303.161 626.488 303.561 624.778 304.031 623.097 304.501 621.457 305.041 619.847 305.651L623.667 308.552C624.097 308.882 624.357 309.342 624.417 309.842 624.487 310.332 624.367 310.852 624.037 311.282 623.707 311.712 623.247 311.972 622.747 312.032 622.257 312.102 621.737 311.982 621.307 311.652L615.716 307.411 615.716 307.411ZM640 328.585C644.191 328.585 648.181 329.415 651.822 330.925 655.603 332.496 659.013 334.786 661.864 337.636 664.714 340.487 667.014 343.887 668.575 347.678 670.085 351.319 670.915 355.319 670.915 359.5 670.915 363.691 670.085 367.681 668.575 371.322 667.014 375.103 664.714 378.513 661.864 381.364 659.113 384.114 655.863 386.344 652.242 387.905 648.761 389.405 644.951 390.285 640.94 390.405 640.8 390.475 640.66 390.535 640.5 390.575 640.34 390.615 640.17 390.635 640 390.635 639.83 390.635 639.66 390.615 639.5 390.575 639.35 390.535 639.2 390.475 639.06 390.405 635.059 390.285 631.239 389.405 627.758 387.905 624.137 386.344 620.877 384.114 618.136 381.364 617.346 380.573 616.596 379.733 615.886 378.853 615.196 377.993 614.546 377.083 613.946 376.153 613.776 376.073 613.626 375.963 613.486 375.843L613.476 375.833C613.336 375.703 613.216 375.553 613.116 375.383 613.016 375.213 612.946 375.033 612.906 374.853 612.866 374.672 612.846 374.492 612.856 374.322 611.635 372.092 610.685 369.702 610.045 367.181 609.415 364.731 609.085 362.16 609.085 359.51 609.085 356.93 609.405 354.429 609.995 352.029 610.605 349.568 611.515 347.218 612.676 345.028 612.695 344.928 612.726 344.838 612.756 344.748 612.796 344.648 612.836 344.558 612.886 344.468 612.936 344.388 612.986 344.307 613.046 344.237 613.096 344.167 613.156 344.107 613.216 344.047 613.896 342.877 614.646 341.757 615.456 340.697 616.286 339.617 617.176 338.607 618.126 337.646 620.977 334.796 624.377 332.496 628.168 330.935 631.819 329.415 635.819 328.585 640 328.585L640 328.585ZM659.093 340.407C656.763 338.076 654.002 336.166 650.952 334.816 648.041 333.526 644.851 332.726 641.5 332.546L641.5 351.129C642.38 351.299 643.211 351.599 643.971 352.009 644.761 352.419 645.471 352.949 646.101 353.569L662.254 344.237C661.794 343.577 661.313 342.927 660.793 342.307 660.273 341.637 659.703 341.007 659.093 340.407L659.093 340.407ZM637.6 332.606C634.429 332.886 631.409 333.716 628.648 334.996 625.758 336.336 623.147 338.177 620.917 340.407 620.237 341.087 619.587 341.807 618.987 342.557 618.406 343.267 617.866 344.017 617.366 344.788L633.049 353.839 633.249 353.629C633.859 353.019 634.549 352.499 635.309 352.079 636.019 351.689 636.799 351.389 637.61 351.189L637.61 332.606 637.6 332.606ZM615.466 348.208C614.676 349.928 614.056 351.749 613.636 353.639 613.216 355.529 612.996 357.49 612.996 359.5 612.996 361.66 613.246 363.761 613.726 365.771 614.206 367.801 614.916 369.742 615.826 371.562L630.958 362.831C630.828 362.41 630.728 361.98 630.658 361.54 630.588 361.07 630.548 360.6 630.548 360.12 630.548 359.6 630.588 359.09 630.678 358.59 630.758 358.11 630.878 357.65 631.029 357.2L615.466 348.208 615.466 348.208ZM617.826 374.913C618.276 375.553 618.747 376.173 619.237 376.773 619.767 377.403 620.317 378.013 620.907 378.593 623.187 380.874 625.868 382.744 628.838 384.094 631.679 385.384 634.779 386.194 638.04 386.434L638.04 369.122C637.14 368.952 636.279 368.661 635.499 368.251 634.659 367.811 633.899 367.251 633.239 366.591 633.169 366.521 633.099 366.451 633.029 366.371L632.889 366.221 617.826 374.913 617.826 374.913ZM641.96 386.434C645.221 386.204 648.321 385.384 651.162 384.094 654.132 382.744 656.813 380.874 659.093 378.593 659.703 377.983 660.283 377.343 660.833 376.683 661.354 376.053 661.844 375.403 662.304 374.723L646.881 365.811C646.781 365.931 646.691 366.051 646.581 366.161 646.451 366.311 646.321 366.451 646.191 366.581L646.181 366.591C645.591 367.181 644.921 367.691 644.191 368.101 643.501 368.491 642.75 368.792 641.96 368.992L641.96 386.434 641.96 386.434ZM664.274 371.352C665.154 369.562 665.834 367.651 666.304 365.661 666.764 363.681 667.014 361.62 667.014 359.5 667.014 357.37 666.764 355.299 666.304 353.309 665.834 351.309 665.144 349.388 664.254 347.588L648.281 356.81C648.471 357.31 648.621 357.83 648.731 358.37 648.841 358.93 648.891 359.51 648.891 360.1 648.891 360.49 648.871 360.88 648.821 361.26 648.781 361.61 648.711 361.96 648.631 362.3L664.274 371.352 664.274 371.352ZM640 318.573C645.541 318.573 650.832 319.673 655.653 321.674 660.663 323.744 665.164 326.785 668.945 330.565 672.715 334.336 675.756 338.847 677.836 343.857 679.837 348.678 680.937 353.969 680.937 359.51 680.937 365.051 679.837 370.342 677.836 375.163 675.766 380.173 672.725 384.674 668.945 388.455 665.174 392.225 660.663 395.266 655.653 397.346 650.832 399.347 645.541 400.447 640 400.447 634.459 400.447 629.168 399.347 624.347 397.346 619.337 395.276 614.836 392.235 611.055 388.455 607.285 384.684 604.244 380.173 602.164 375.163 600.163 370.342 599.063 365.051 599.063 359.51 599.063 353.969 600.163 348.678 602.164 343.857 604.234 338.847 607.275 334.346 611.055 330.565 614.826 326.795 619.337 323.754 624.347 321.674 629.168 319.673 634.459 318.573 640 318.573L640 318.573ZM666.074 333.426C662.674 330.025 658.613 327.285 654.102 325.414 649.762 323.614 644.991 322.624 640 322.624 635.009 322.624 630.238 323.614 625.898 325.414 621.387 327.285 617.326 330.025 613.926 333.426 610.525 336.826 607.785 340.887 605.914 345.398 604.114 349.738 603.124 354.509 603.124 359.5 603.124 364.491 604.114 369.262 605.914 373.602 607.785 378.113 610.525 382.174 613.926 385.574 617.326 388.975 621.387 391.715 625.898 393.586 630.238 395.386 635.009 396.376 640 396.376 644.991 396.376 649.762 395.386 654.102 393.586 658.613 391.715 662.674 388.975 666.074 385.574 669.475 382.174 672.215 378.113 674.086 373.602 675.886 369.262 676.876 364.491 676.876 359.5 676.876 354.509 675.886 349.738 674.086 345.398 672.215 340.887 669.475 336.826 666.074 333.426L666.074 333.426ZM641.54 358.28C641.3 358.04 641.02 357.85 640.7 357.72 640.4 357.59 640.06 357.52 639.71 357.52 639.36 357.52 639.02 357.59 638.72 357.72 638.4 357.85 638.12 358.04 637.88 358.28 637.64 358.52 637.45 358.8 637.32 359.12 637.19 359.42 637.12 359.76 637.12 360.11 637.12 360.46 637.19 360.8 637.32 361.1 637.45 361.42 637.64 361.7 637.88 361.94L637.89 361.95C638.13 362.19 638.41 362.37 638.72 362.5 639.02 362.63 639.36 362.701 639.71 362.701 640.06 362.701 640.4 362.63 640.7 362.5 641.02 362.37 641.3 362.18 641.54 361.94 641.78 361.7 641.97 361.42 642.1 361.1 642.23 360.8 642.3 360.46 642.3 360.11 642.3 359.76 642.23 359.42 642.1 359.12 641.97 358.8 641.78 358.52 641.54 358.28L641.54 358.28Z" fill="#FFFFFF"/></g></svg>