<svg width="328" height="328" xmlns="http://www.w3.org/2000/svg" xmlns:xlink="http://www.w3.org/1999/xlink" xml:space="preserve" overflow="hidden"><defs><clipPath id="clip0"><rect x="466" y="253" width="328" height="328"/></clipPath></defs><g clip-path="url(#clip0)" transform="translate(-466 -253)"><path d="M630 253.017C539.421 253.017 466 326.421 466 417.017 466 507.596 539.421 580.983 630 580.983 720.612 580.983 794 507.563 794 417.017 794 326.437 720.612 253.017 630 253.017ZM630 563.113C549.342 563.113 483.937 497.741 483.937 417.05 483.937 336.342 549.342 270.987 630 270.987 710.692 270.987 776.08 336.358 776.08 417.05 776.046 497.692 710.675 563.113 630 563.113ZM580.876 487.953 607.575 487.953 607.575 532.207 580.876 532.207 580.876 487.953ZM621.354 487.953 648.053 487.953 648.053 532.207 621.354 532.207C621.354 532.207 621.354 487.953 621.354 487.953ZM661.137 487.953 687.836 487.953 687.836 532.207 661.137 532.207 661.137 487.953ZM651.796 427.004C651.796 434.539 645.651 440.684 638.132 440.684 630.878 440.684 624.915 435.02 624.485 427.865L576.272 367.843 638.149 413.356C645.651 413.356 651.796 419.468 651.796 427.004ZM552.29 449.76 564.132 461.619 541.905 483.862 530.046 471.987 552.29 449.76ZM541.971 408.388 510.536 408.388 510.536 391.627 541.971 391.627C541.971 391.627 541.971 408.388 541.971 408.388ZM548.729 317.08 570.955 339.323 559.097 351.165 536.87 328.922 548.729 317.08ZM638.381 324.748 621.62 324.748 621.62 293.313 638.381 293.313 638.381 324.748ZM706.534 357.508 694.659 345.666 716.919 323.423 728.761 335.282 706.534 357.508ZM754.3 391.627 754.3 408.388 722.881 408.388 722.881 391.627 754.3 391.627ZM712.265 453.122 734.525 475.349 722.683 487.191 700.423 464.964 712.265 453.122Z" fill="#FFFFFF"/></g></svg>