<svg width="720" height="720" xmlns="http://www.w3.org/2000/svg" xmlns:xlink="http://www.w3.org/1999/xlink" xml:space="preserve" overflow="hidden"><defs><clipPath id="clip0"><rect x="351" y="-10" width="720" height="720"/></clipPath></defs><g clip-path="url(#clip0)" transform="translate(-351 10)"><path d="M711 470C661.295 470 621 429.706 621 380 621 346.4 639.3 317 666 301.7L957.3 133.1 791.4 420.5C776.4 449.9 746.1 470 711 470M711 80C765.3 80 816 94.9998 860.1 119.6L797.1 155.9C771 145.7 741 140 711 140 578.452 140 471 247.451 471 380 471 446.3 497.7 506.3 541.2 549.5L541.5 549.5C553.2 561.2 553.2 580.1 541.5 591.8 529.8 603.5 510.6 603.5 498.9 592.1 442.548 535.91 410.914 459.578 411 380 411 214.314 545.314 80 711 80M1011 380C1011 462.8 977.4 537.8 923.1 592.1 911.4 603.5 892.5 603.5 880.8 591.8 869.119 580.143 869.1 561.224 880.757 549.543 880.771 549.529 880.786 549.515 880.8 549.5 925.864 504.62 951.136 443.6 951 380 951 350 945.3 320 934.8 293L971.1 230C996 275 1011 325.4 1011 380Z" fill="#FFFFFF"/></g></svg>