<svg width="123" height="122" xmlns="http://www.w3.org/2000/svg" xmlns:xlink="http://www.w3.org/1999/xlink" xml:space="preserve" overflow="hidden"><defs><clipPath id="clip0"><rect x="578" y="299" width="123" height="122"/></clipPath></defs><g clip-path="url(#clip0)" transform="translate(-578 -299)"><path d="M597.021 358.289 592.781 357.102C592.522 359.207 592.382 361.352 592.382 363.527 592.382 370.44 593.749 377.025 596.233 383.01L596.233 383.02C598.817 389.245 602.598 394.852 607.297 399.541L607.307 399.551C611.995 404.25 617.602 408.031 623.827 410.615L623.837 410.615C629.823 413.099 636.407 414.466 643.321 414.466 650.234 414.466 656.819 413.099 662.805 410.615 669.02 408.041 674.626 404.25 679.335 399.541L679.345 399.541C684.044 394.852 687.825 389.245 690.409 383.02L690.409 383C692.893 377.015 694.26 370.43 694.26 363.517 694.26 356.603 692.893 350.019 690.409 344.033 687.835 337.818 684.044 332.211 679.335 327.502L679.335 327.492C674.646 322.793 669.04 319.012 662.815 316.429L662.805 316.429C658.625 314.693 654.155 313.506 649.476 312.947L649.476 318.554C624.496 318.554 603.446 335.364 597.021 358.289L597.021 358.289ZM638.891 305.774C641.146 305.774 642.982 307.6 642.982 309.864 642.982 312.119 641.156 313.954 638.891 313.954 636.637 313.954 634.801 312.129 634.801 309.864 634.811 307.61 636.637 305.774 638.891 305.774L638.891 305.774ZM591.604 341.429C593.858 341.429 595.694 343.255 595.694 345.519 595.694 347.774 593.868 349.61 591.604 349.61 589.349 349.61 587.514 347.784 587.514 345.519 587.514 343.255 589.349 341.429 591.604 341.429L591.604 341.429ZM586.426 355.306 578.206 353.002C587.174 321.068 616.305 299 649.476 299L649.476 306.372C655.023 306.961 660.34 308.348 665.309 310.403L665.309 310.403C672.342 313.316 678.667 317.586 683.954 322.883L683.964 322.873C689.252 328.161 693.522 334.496 696.445 341.549 699.258 348.333 700.804 355.755 700.804 363.517 700.804 371.288 699.248 378.721 696.445 385.504L696.445 385.504C693.532 392.538 689.262 398.863 683.964 404.15L683.974 404.16C678.687 409.447 672.352 413.717 665.299 416.64 658.515 419.454 651.092 421 643.331 421 635.559 421 628.127 419.444 621.343 416.64L621.343 416.64C614.31 413.727 607.985 409.457 602.697 404.17L602.688 404.16C597.4 398.873 593.13 392.548 590.217 385.514L590.217 385.514C587.404 378.73 585.857 371.308 585.857 363.527 585.838 360.733 586.037 357.99 586.426 355.306L586.426 355.306ZM643.321 328.111C648.12 328.111 652.689 329.069 656.869 330.794 661.198 332.59 665.099 335.224 668.361 338.486 671.624 341.748 674.257 345.649 676.053 349.989 677.779 354.159 678.737 358.738 678.737 363.527 678.737 368.325 677.779 372.894 676.053 377.074 674.257 381.404 671.624 385.305 668.361 388.567 665.099 391.829 661.198 394.463 656.859 396.259 652.689 397.985 648.109 398.942 643.321 398.942 638.522 398.942 633.953 397.985 629.773 396.259 625.443 394.463 621.543 391.829 618.28 388.567 615.018 385.305 612.384 381.404 610.589 377.064 608.863 372.894 607.905 368.315 607.905 363.527 607.905 358.728 608.863 354.159 610.589 349.979 612.384 345.649 615.018 341.748 618.28 338.486 621.543 335.224 625.443 332.59 629.783 330.794 633.953 329.069 638.522 328.111 643.321 328.111L643.321 328.111ZM635.48 357.142C635.599 356.982 635.719 356.833 635.839 356.683 636.018 356.463 636.218 356.254 636.427 356.044 636.916 355.566 637.445 355.137 638.023 354.757 638.512 354.438 639.031 354.169 639.57 353.939L639.57 335.713C636.557 336.112 633.704 336.99 631.07 338.267 628.237 339.643 625.673 341.479 623.478 343.674 622.271 344.881 621.174 346.188 620.206 347.594 619.328 348.871 618.55 350.218 617.881 351.635L635.48 357.142 635.48 357.142ZM646.583 359.676C646.164 359.257 645.655 358.908 645.087 358.678 644.548 358.459 643.949 358.329 643.311 358.329 642.682 358.329 642.084 358.449 641.535 358.678 640.977 358.908 640.468 359.247 640.039 359.676L640.029 359.686C639.6 360.115 639.261 360.614 639.031 361.182 638.812 361.721 638.682 362.319 638.682 362.958 638.682 363.586 638.802 364.185 639.031 364.734 639.261 365.302 639.6 365.801 640.029 366.23L640.059 366.22C640.478 366.649 640.986 366.988 641.555 367.218 642.094 367.437 642.692 367.567 643.331 367.567 643.959 367.567 644.558 367.447 645.107 367.218 645.675 366.988 646.174 366.649 646.603 366.22L646.613 366.21C647.032 365.791 647.381 365.282 647.611 364.714 647.83 364.175 647.96 363.577 647.96 362.938 647.96 362.31 647.83 361.711 647.611 361.162 647.351 360.614 647.002 360.105 646.583 359.676L646.583 359.676ZM646.892 353.86C647.471 354.089 648.03 354.378 648.558 354.718 649.167 355.107 649.716 355.546 650.215 356.044 650.374 356.204 650.544 356.384 650.703 356.573 650.803 356.693 650.903 356.813 650.993 356.932L668.94 352.124C668.272 350.617 667.464 349.171 666.546 347.814 665.538 346.328 664.391 344.941 663.124 343.674 660.899 341.449 658.305 339.603 655.452 338.217 652.798 336.94 649.905 336.062 646.872 335.673L646.872 353.86 646.892 353.86ZM653.028 363.996C652.948 364.684 652.808 365.362 652.599 366.001 652.379 366.659 652.09 367.298 651.741 367.886L662.136 384.357 662.495 384.028C662.715 383.828 662.934 383.609 663.174 383.369 665.758 380.786 667.843 377.693 669.269 374.261 670.636 370.959 671.394 367.328 671.394 363.527 671.394 362.719 671.364 361.91 671.294 361.122 671.235 360.464 671.155 359.805 671.055 359.167L653.028 363.996 653.028 363.996ZM645.915 372.366C645.546 372.465 645.167 372.545 644.787 372.605 644.309 372.675 643.82 372.715 643.321 372.715 642.882 372.715 642.443 372.685 642.004 372.625 641.665 372.575 641.326 372.515 640.996 372.435L630.97 388.737C632.806 389.635 634.741 390.343 636.766 390.822 638.862 391.321 641.056 391.59 643.321 391.59 645.665 391.59 647.93 391.301 650.105 390.762 652.21 390.243 654.215 389.485 656.11 388.517L645.915 372.366 645.915 372.366ZM635.031 368.106C634.671 367.527 634.362 366.909 634.133 366.26 633.903 365.622 633.734 364.953 633.644 364.255L615.677 358.628C615.547 359.367 615.447 360.105 615.377 360.843 615.298 361.711 615.248 362.609 615.248 363.517 615.248 367.318 616.006 370.949 617.373 374.251 618.789 377.683 620.874 380.776 623.468 383.359 623.747 383.639 624.037 383.908 624.306 384.168L624.845 384.656 635.031 368.106 635.031 368.106Z" fill="#FFFFFF" fill-rule="evenodd"/></g></svg>