<svg width="720" height="720" xmlns="http://www.w3.org/2000/svg" xmlns:xlink="http://www.w3.org/1999/xlink" xml:space="preserve" overflow="hidden"><defs><clipPath id="clip0"><rect x="221" y="0" width="720" height="720"/></clipPath></defs><g clip-path="url(#clip0)" transform="translate(-221 0)"><path d="M343.688 719.044C337.669 718.762 320.906 717.188 311.906 716.006 290.531 713.306 263.812 707.006 244.125 700.031 241.819 699.244 237.994 697.894 235.688 697.106 233.381 696.319 231.244 695.475 230.906 695.306 230.625 695.081 229.106 694.406 227.531 693.844 213.244 688.725 188.044 675.956 170.494 665.044 164.756 661.444 146.475 648.9 145.238 647.662 144.844 647.212 144.281 646.875 144.113 646.875 143.887 646.875 143.1 646.312 142.312 645.638 141.525 644.906 138.994 642.825 136.688 641.025 134.381 639.169 129.094 634.725 124.987 631.181 120.825 627.581 116.887 624.263 116.1 623.812 114.356 622.744 96.1875 604.406 96.1875 603.731 96.1875 603.45 95.2312 602.212 94.1062 600.975 89.1562 595.8 73.125 576.337 73.125 575.55 73.125 575.325 72.5625 574.537 71.8312 573.75 71.1 572.962 69.6937 571.106 68.625 569.531 67.6125 568.013 66.6 566.606 66.375 566.438 65.7562 565.931 55.35 549.9 51.9187 544.219 45.675 533.756 39.5438 522.225 34.3125 511.087 31.7812 505.575 26.4375 493.087 26.4375 492.525 26.4375 492.356 25.9312 491.119 25.3125 489.769 24.75 488.475 23.4562 485.156 22.5 482.344 21.5437 479.587 20.5312 476.775 20.25 476.156 19.6313 474.75 16.2 463.556 14.0062 455.625 9.50625 439.65 5.56875 419.456 3.7125 402.75-1.40625 357.412 1.18125 315.45 11.8687 272.306 17.4375 249.919 24.2437 230.512 34.425 208.406 36.675 203.4 45.2812 186.581 47.5875 182.644 54.1687 171.281 65.3063 154.406 72.3937 145.012 74.6437 142.031 76.5 139.387 76.5 139.162 76.5 138.825 78.1312 136.744 84.0938 129.431 92.025 119.7 115.2 95.625 116.606 95.625 116.887 95.625 117.45 95.2875 117.787 94.8375 118.575 93.8812 127.744 85.8375 133.369 81.225 143.831 72.675 160.537 60.75 172.406 53.325 185.456 45.225 208.35 33.4125 220.5 28.575 222.806 27.675 225.506 26.55 226.406 26.1 229.05 24.8625 241.706 20.3062 246.656 18.7875 249.131 18 251.662 17.1562 252.281 16.875 253.519 16.3687 257.119 15.2437 262.688 13.7812 264.712 13.275 266.962 12.6 267.75 12.375 269.044 11.925 278.887 9.61875 287.719 7.65 295.706 5.85 314.494 3.09375 328.781 1.575 337.781 0.61875 383.681 0.61875 392.625 1.575 406.8 3.09375 425.137 5.79375 433.125 7.59375 455.512 12.5437 467.55 15.975 484.594 22.2188 487.688 23.3438 491.006 24.5812 491.906 24.8625 492.862 25.2 493.875 25.65 494.156 25.875 494.494 26.1 495.337 26.4937 496.125 26.7188 502.369 28.575 528.412 41.4 540.844 48.6562 552.263 55.35 574.087 69.8625 576 71.9437 576.562 72.5625 579.881 74.8125 580.275 74.8125 580.612 74.8125 585.45 78.5812 590.062 82.4625 606.375 96.1312 622.181 111.825 635.119 127.125 637.087 129.431 638.831 131.456 639 131.625 639.956 132.525 645.188 139.556 645.188 139.95 645.188 140.175 645.638 140.906 646.2 141.525 647.944 143.438 657.281 156.488 660.656 161.719 662.456 164.531 664.706 168.075 665.719 169.594 673.931 182.362 687.375 208.237 691.987 220.219 692.606 221.794 693.45 223.819 693.844 224.719 698.681 235.125 706.894 261.169 710.775 278.269 713.925 291.994 714.319 294.075 715.781 304.312 716.231 307.575 716.906 311.737 717.188 313.594 718.537 321.469 719.55 337.275 719.831 354.094 720.45 391.106 716.4 422.662 706.612 457.875 698.681 486.337 684.562 519.188 669.769 543.544 664.706 551.812 656.55 564.244 652.106 570.375 649.8 573.525 643.837 581.344 643.5 581.625 643.331 581.794 642.319 583.031 641.25 584.438 640.181 585.844 639.169 587.081 639 587.25 638.831 587.419 637.481 589.05 635.906 590.906 634.388 592.763 631.35 596.306 629.156 598.837 627.019 601.312 624.712 604.013 624.037 604.856 618.412 612.225 588.769 639.225 580.725 644.4 579.825 644.962 576.844 647.1 574.031 649.181 565.425 655.481 551.869 664.537 544.5 668.812 540.619 671.006 537.244 673.031 536.906 673.312 534.769 674.888 507.6 688.5 506.531 688.5 506.419 688.5 504.731 689.231 502.762 690.131 500.794 691.031 497.475 692.438 495.281 693.281 493.144 694.125 490.5 695.137 489.487 695.644 487.8 696.375 483.244 698.006 474.75 700.875 459.056 706.162 443.194 710.156 422.438 714.094 417.037 715.106 399.319 717.3 388.406 718.312 381.656 718.931 352.181 719.381 343.688 719.044ZM272.812 492.412C307.913 457.312 342.112 423.281 348.806 416.812L360.956 405 436.556 480.656C478.125 522.281 512.381 556.312 512.719 556.312 513 556.312 523.237 546.356 535.331 534.263L557.438 512.156 486.731 441.281C447.806 402.3 413.662 367.987 410.794 365.062L405.562 359.719 481.5 283.781 557.438 207.844 535.106 185.512 512.719 163.125 437.062 238.781C395.438 280.406 361.125 314.438 360.844 314.438 360.056 314.438 358.312 312.694 278.719 233.269L208.406 163.125 186.3 185.231C174.206 197.325 164.25 207.506 164.25 207.787 164.25 208.012 198.281 242.325 239.906 283.95L315.562 359.606 304.312 371.194C298.181 377.55 264.15 411.75 228.712 447.188 193.275 482.625 164.25 511.819 164.25 512.044 164.25 512.719 207.731 556.256 208.406 556.256 208.744 556.312 237.712 527.569 272.812 492.412Z" fill="#FFFFFF" transform="matrix(1 0 0 -1 221 720)"/></g></svg>