<svg width="247" height="247" xmlns="http://www.w3.org/2000/svg" xmlns:xlink="http://www.w3.org/1999/xlink" xml:space="preserve" overflow="hidden"><defs><clipPath id="clip0"><rect x="546" y="202" width="247" height="247"/></clipPath></defs><g clip-path="url(#clip0)" transform="translate(-546 -202)"><path d="M576.875 279.188 762.125 279.188C770.646 279.188 777.562 272.271 777.562 263.75 777.562 255.229 770.646 248.312 762.125 248.312L576.875 248.312C568.354 248.312 561.438 255.229 561.438 263.75 561.438 272.271 568.354 279.188 576.875 279.188ZM762.125 310.062 576.875 310.062C568.354 310.062 561.438 316.979 561.438 325.5 561.438 334.021 568.354 340.938 576.875 340.938L762.125 340.938C770.646 340.938 777.562 334.021 777.562 325.5 777.562 316.979 770.646 310.062 762.125 310.062ZM762.125 371.812 576.875 371.812C568.354 371.812 561.438 378.729 561.438 387.25 561.438 395.771 568.354 402.688 576.875 402.688L762.125 402.688C770.646 402.688 777.562 395.771 777.562 387.25 777.562 378.729 770.646 371.812 762.125 371.812Z" fill="#FFFFFF"/></g></svg>