<svg width="123" height="123" xmlns="http://www.w3.org/2000/svg" xmlns:xlink="http://www.w3.org/1999/xlink" xml:space="preserve" overflow="hidden"><defs><clipPath id="clip0"><rect x="578" y="298" width="123" height="123"/></clipPath></defs><g clip-path="url(#clip0)" transform="translate(-578 -298)"><path d="M639.5 298C673.477 297.99 701.028 325.526 701.038 359.502 701.047 393.479 673.512 421.03 639.535 421.04 605.559 421.05 578.007 393.514 577.998 359.538 577.993 343.215 584.475 327.559 596.018 316.018 607.535 304.462 623.185 297.977 639.5 298ZM655.075 355.476 647.838 359.59C647.81 360.121 647.726 360.648 647.588 361.162 646.431 365.399 642.077 367.913 637.828 366.797 637.282 366.649 636.752 366.444 636.247 366.187L628.579 370.551 659.51 393.323 655.075 355.476ZM624.595 363.944 631.973 359.75C631.897 358.846 631.978 357.935 632.213 357.058 633.37 352.82 637.724 350.306 641.972 351.422 642.886 351.674 643.749 352.08 644.525 352.623L651.071 348.87 620.181 326.097 624.595 363.944ZM673.453 325.547C654.722 306.751 624.301 306.698 605.505 325.429 586.709 344.16 586.656 374.581 605.387 393.377 624.118 412.173 654.539 412.226 673.335 393.495 682.373 384.489 687.457 372.259 687.467 359.5 687.497 346.769 682.454 334.551 673.453 325.547Z" fill="#FFFFFF"/></g></svg>