<svg width="399" height="2134" xmlns="http://www.w3.org/2000/svg" xmlns:xlink="http://www.w3.org/1999/xlink" xml:space="preserve" overflow="hidden"><defs><clipPath id="clip0"><rect x="1989" y="109" width="399" height="2134"/></clipPath></defs><g clip-path="url(#clip0)" transform="translate(-1989 -109)"><path d="M2104.08 2018.45C2098.49 1882.96 2073.31 1534.31 2080.14 1394.13 2086.98 1253.94 2149.83 1237.1 2145.11 1177.34 2140.39 1117.59 2044.86 1139.38 2051.81 1035.59 2058.76 931.806 2033.41 669.846 2034.45 575.236 2035.49 480.627 2060.28 501.539 2058.05 467.938 2055.83 434.338 2023.99 419.526 2021.08 373.635 2018.16 327.744 2007.15 238.201 2040.56 192.593 2073.97 146.985 2089.32 148.681 2118.57 141.246 2147.81 133.81 2188.6 136.194 2216.05 147.982 2243.51 159.769 2269.97 188.959 2283.29 211.973 2296.61 234.987 2292.42 253.64 2295.98 286.068 2299.53 318.496 2303.5 373.093 2304.62 406.543 2305.74 439.994 2309.53 457.477 2302.7 486.771 2295.88 516.065 2257.88 530.887 2263.66 582.309 2269.45 633.731 2314.25 648.419 2316.83 683.909 2319.42 719.399 2279.22 759.394 2279.17 795.248 2279.12 831.103 2307.05 845.361 2316.55 899.038 2326.06 952.715 2332.35 1066.86 2336.18 1117.31 2340 1167.76 2343.15 1179.49 2339.5 1201.76 2335.86 1224.03 2296.68 1262.89 2297.83 1289.44 2298.98 1315.99 2343.82 1335.11 2346.4 1361.07 2348.99 1387.03 2311.46 1415.08 2313.33 1445.2 2315.21 1475.31 2351.88 1483.74 2357.65 1541.77 2363.42 1599.81 2357.93 1735.63 2347.97 1793.4 2338.01 1851.17 2325.33 1858.19 2297.9 1888.39 2270.47 1918.59 2204.55 1934.72 2183.39 1974.58 2162.23 2014.45 2170.91 2127.59 2170.91 2127.59 2168.99 2172.2 2173.86 2192.56 2164.33 2205.81 2154.79 2219.06 2123.39 2216.64 2113.7 2207.07 2104 2197.51 2109.67 2153.94 2104.08 2018.45Z" stroke="#FFFFFF" stroke-width="56.1458" stroke-miterlimit="8" fill="none" fill-rule="evenodd"/></g></svg>