<svg width="122" height="123" xmlns="http://www.w3.org/2000/svg" xmlns:xlink="http://www.w3.org/1999/xlink" xml:space="preserve" overflow="hidden"><defs><clipPath id="clip0"><rect x="579" y="298" width="122" height="123"/></clipPath></defs><g clip-path="url(#clip0)" transform="translate(-579 -298)"><path d="M696.272 307.377 696.272 346.644 657.004 346.644 652.376 346.644 655.645 343.365 667.091 331.919C666.341 331.189 665.552 330.48 664.732 329.81 663.652 328.93 662.513 328.09 661.353 327.331L661.353 327.331C655.335 323.402 648.147 321.123 640.42 321.123L640.41 321.123 640.41 321.113C629.823 321.113 620.236 325.411 613.299 332.349 606.361 339.287 602.062 348.873 602.062 359.45L602.072 359.45 602.072 359.5 602.062 359.5C602.062 370.087 606.361 379.683 613.299 386.611 620.236 393.549 629.823 397.847 640.4 397.847L640.4 397.837 640.48 397.837 640.48 397.847C644.179 397.847 647.867 397.308 651.406 396.258L651.406 396.258C653.356 395.678 655.275 394.928 657.114 394.039 666.501 389.5 673.759 381.243 676.978 371.176L677.408 369.847 701.01 369.847 700.54 372.146 700.53 372.206 700.53 372.216C699.72 376.055 698.521 379.833 696.991 383.452L696.991 383.462C695.492 387.011 693.622 390.44 691.473 393.649 680.457 410.073 661.703 420.9 640.44 420.9L640.42 420.9 640.42 420.89C623.465 420.89 608.1 414.012 597.004 402.906L597.004 402.896C585.888 391.819 579.02 376.474 579.01 359.53L579 359.53 579 359.48 579.01 359.48C579.01 342.526 585.888 327.171 597.004 316.064L597.004 316.064C608.1 304.968 623.445 298.1 640.39 298.09L640.39 298.08 640.45 298.08 640.45 298.09C649.157 298.09 657.454 299.92 664.952 303.188 666.161 303.718 667.381 304.288 668.551 304.898 674.029 307.727 679.017 311.356 683.376 315.634L692.983 306.028 696.252 302.759 696.252 307.377 696.272 307.377 696.272 307.377Z" fill="#FFFFFF" fill-rule="evenodd"/></g></svg>