<svg width="512" height="512" xmlns="http://www.w3.org/2000/svg" xmlns:xlink="http://www.w3.org/1999/xlink" xml:space="preserve" overflow="hidden"><defs><clipPath id="clip0"><rect x="384" y="104" width="512" height="512"/></clipPath></defs><g clip-path="url(#clip0)" transform="translate(-384 -104)"><path d="M639.99 104C710.67 104 774.69 132.66 821.01 178.98 867.33 225.3 896 289.31 896 360 896 430.68 867.33 494.69 821.01 541.01 774.69 587.33 710.67 616 639.99 616 569.31 616 505.3 587.33 458.98 541.01 412.66 494.69 384 430.68 384 360 384 289.33 412.66 225.3 458.98 178.98 505.3 132.66 569.31 104 639.99 104ZM717.39 373.81C731.14 364.93 731.09 355.04 717.39 347.18L607.12 270.41C595.93 263.37 584.23 267.51 584.54 282.13L584.98 436.6C585.94 452.46 595 456.81 608.35 449.47L717.39 373.81ZM796.74 203.25C756.64 163.15 701.2 138.33 639.99 138.33 578.78 138.33 523.36 163.15 483.25 203.25 443.15 243.36 418.33 298.79 418.33 360 418.33 421.22 443.15 476.64 483.25 516.74 523.36 556.85 578.78 581.67 639.99 581.67 701.2 581.67 756.64 556.85 796.74 516.74 836.85 476.64 861.67 421.22 861.67 360 861.67 298.78 836.85 243.36 796.74 203.25Z" fill="#FFFFFF"/></g></svg>