<svg width="426" height="327" xmlns="http://www.w3.org/2000/svg" xmlns:xlink="http://www.w3.org/1999/xlink" xml:space="preserve" overflow="hidden"><defs><clipPath id="clip0"><rect x="427" y="196" width="426" height="327"/></clipPath></defs><g clip-path="url(#clip0)" transform="translate(-427 -196)"><path d="M452.419 226.219C452.105 227.228 451.8 228.239 451.501 229.252 443.669 258.868 437.429 288.931 432.158 319.099 429.624 333.804 430.673 350.131 440.394 362.19 450.431 374.968 462.206 386.488 474.959 396.532 480.149 401.037 487.781 400.577 492.957 396.309 499.372 393.043 503.064 384.497 498.632 378.186 492.809 367.843 479.402 366.539 472.002 358.021 466.399 351.525 472.192 342.467 478.558 339.119 523.988 311.959 569.654 285.057 615.861 259.307 621.009 256.318 626.804 256.541 631.955 259.242 642.051 263.943 652.572 270.083 658.673 279.735 658.754 283.595 652.626 282.695 650.063 283.241 641.815 284.218 632.557 281.095 624.868 285.148 619.88 290.066 624.163 297.853 625.473 303.445 630.293 319.472 639.142 334.528 640.46 351.422 640.218 368.301 627.563 381.663 624.022 397.738 623.18 410.743 632.809 421.318 639.069 431.782 653.776 453.905 670.651 474.598 684.656 497.156 690.472 507.245 698.904 519.212 711.872 519.137 723.339 519.735 737.492 518.171 744.279 507.671 747.951 501.903 744.149 495.559 742.478 489.945 745.238 485.017 752.582 484.742 757.182 481.96 777.843 473.353 797.699 462.191 820.243 459.415 829.736 457.901 840.71 455.58 845.617 446.25 849.853 438.127 850.779 427.427 844.554 419.989 822.932 387.346 792.959 361.561 766.599 332.943 749.043 314.037 729.958 296.499 713.498 276.643 704.3 264.807 707.341 246.322 695.151 236.323 687.995 231.421 678.782 231.651 671.027 234.958 661.573 239.694 650.741 236.467 642.82 230.293 634.068 224.263 625.361 213.969 613.443 216.592 604.608 217.981 595.564 220.289 586.89 217.193 551.492 208.125 515.371 197.941 478.477 200.024 468.01 200.08 458.951 207.569 455.617 217.27 454.379 220.19 453.348 223.191 452.405 226.218Z" stroke="#FFFFFF" stroke-width="7.49748" stroke-linejoin="round" fill="none"/></g></svg>