<svg class="svg-icon" style="width: 1em; height: 1em;vertical-align: middle;fill: currentColor;overflow: hidden;" viewBox="0 0 1024 1024" version="1.1" xmlns="http://www.w3.org/2000/svg"><path d="M512 682.666667a128 128 0 0 1-128-128c0-47.786667 26.026667-89.6 64-111.36l414.293333-239.786667-235.946666 408.746667c-21.333333 41.813333-64.426667 70.4-114.346667 70.4m0-554.666667c77.226667 0 149.333333 21.333333 212.053333 56.32l-89.6 51.626667C597.333333 221.44 554.666667 213.333333 512 213.333333a341.333333 341.333333 0 0 0-341.333333 341.333334c0 94.293333 37.973333 179.626667 99.84 241.066666h0.426666c16.64 16.64 16.64 43.52 0 60.16-16.64 16.64-43.946667 16.64-60.586666 0.426667A425.344 425.344 0 0 1 85.333333 554.666667 426.666667 426.666667 0 0 1 512 128m426.666667 426.666667c0 117.76-47.786667 224.426667-125.013334 301.653333-16.64 16.213333-43.52 16.213333-60.16-0.426667a42.496 42.496 0 0 1 0-60.16A339.2 339.2 0 0 0 853.333333 554.666667c0-42.666667-8.106667-85.333333-23.04-123.733334L881.92 341.333333C917.333333 405.333333 938.666667 477.013333 938.666667 554.666667z" fill="" /></svg>