<svg width="123" height="106" xmlns="http://www.w3.org/2000/svg" xmlns:xlink="http://www.w3.org/1999/xlink" xml:space="preserve" overflow="hidden"><defs><clipPath id="clip0"><rect x="578" y="307" width="123" height="106"/></clipPath></defs><g clip-path="url(#clip0)" transform="translate(-578 -307)"><path d="M636.219 359.83 664.739 341.662C664.938 341.512 665.217 341.542 665.387 341.722L668.139 344.653C668.308 344.833 668.318 345.122 668.159 345.312L646.55 370.421C643.479 373.721 640.198 374.369 637.555 373.512 636.239 373.083 635.092 372.295 634.215 371.268 633.337 370.251 632.729 369.005 632.48 367.668 631.991 365.006 632.969 362.024 636.199 359.84L636.219 359.83 636.219 359.83ZM597.509 412.87C594.467 410.008 591.725 406.837 589.322 403.417 586.939 400.027 584.895 396.377 583.229 392.538 581.604 388.769 580.347 384.8 579.49 380.672 578.672 376.663 578.233 372.515 578.233 368.267 578.233 359.97 579.889 352.062 582.87 344.843 585.981 337.344 590.529 330.593 596.183 324.949 601.827 319.305 608.578 314.748 616.076 311.647 623.296 308.655 631.203 307 639.5 307 647.777 307 655.664 308.655 662.864 311.647 670.363 314.758 677.104 319.325 682.758 324.979 688.422 330.643 692.989 337.404 696.1 344.893 699.101 352.112 700.767 360.01 700.767 368.267 700.767 372.305 700.368 376.254 699.61 380.083 698.832 384.012 697.665 387.811 696.16 391.451 694.624 395.151 692.739 398.681 690.536 401.971 688.312 405.302 685.769 408.403 682.957 411.245 682.768 411.434 682.448 411.434 682.259 411.245L679.198 408.194C679.138 408.174 679.078 408.134 679.028 408.084L670.492 399.548C670.303 399.359 670.303 399.04 670.492 398.85L674.97 394.373C675.159 394.183 675.478 394.183 675.668 394.373L682.259 400.964C683.655 399.149 684.941 397.255 686.098 395.28 687.345 393.166 688.441 390.952 689.389 388.669 690.665 385.578 691.672 382.337 692.35 378.986 692.989 375.875 693.348 372.654 693.417 369.373L684.333 369.373C684.064 369.373 683.835 369.154 683.835 368.875L683.835 362.543C683.835 362.274 684.054 362.044 684.333 362.044L693.068 362.044C692.39 356.211 690.765 350.646 688.362 345.511 685.879 340.216 682.558 335.39 678.569 331.182L672.726 337.025C672.536 337.214 672.217 337.214 672.028 337.025L667.551 332.548C667.361 332.358 667.361 332.039 667.551 331.85L673.185 326.216C668.757 322.656 663.761 319.774 658.357 317.74 653.121 315.775 647.507 314.598 641.654 314.369L641.654 322.376C641.654 322.646 641.435 322.875 641.155 322.875L634.813 322.875C634.544 322.875 634.315 322.656 634.315 322.376L634.315 314.569C628.501 315.117 622.947 316.603 617.821 318.846 612.526 321.17 607.68 324.321 603.442 328.12L609.295 333.974C609.485 334.163 609.485 334.482 609.295 334.672L604.818 339.149C604.629 339.338 604.31 339.338 604.12 339.149L598.336 333.365C594.617 337.753 591.576 342.749 589.402 348.183 587.308 353.468 586.001 359.142 585.652 365.066L594.657 365.066C594.926 365.066 595.156 365.285 595.156 365.564L595.156 371.906C595.156 372.176 594.936 372.405 594.657 372.405L585.712 372.405C585.932 375.337 586.39 378.189 587.058 380.961 587.776 383.962 588.754 386.864 589.96 389.656 591.007 392.079 592.224 394.403 593.59 396.616 594.876 398.7 596.302 400.695 597.858 402.57L605.077 395.35C605.267 395.16 605.586 395.16 605.775 395.35L610.253 399.827C610.442 400.017 610.442 400.336 610.253 400.525 606.124 404.654 602.186 408.612 598.197 412.85 598.017 413.05 597.708 413.06 597.509 412.87L597.509 412.87Z" fill="#FFFFFF"/></g></svg>