<svg width="123" height="123" xmlns="http://www.w3.org/2000/svg" xmlns:xlink="http://www.w3.org/1999/xlink" xml:space="preserve" overflow="hidden"><defs><clipPath id="clip0"><rect x="490" y="280" width="123" height="123"/></clipPath></defs><g clip-path="url(#clip0)" transform="translate(-490 -280)"><path d="M551.5 301.761C562.471 301.761 572.41 306.206 579.597 313.403 586.784 320.59 591.239 330.529 591.239 341.5 591.239 352.471 586.794 362.41 579.597 369.597 572.41 376.784 562.471 381.239 551.5 381.239 540.529 381.239 530.59 376.794 523.403 369.597 516.216 362.41 511.761 352.471 511.761 341.5 511.761 330.529 516.206 320.59 523.403 313.403 530.59 306.216 540.529 301.761 551.5 301.761L551.5 301.761ZM551.5 280C568.487 280 583.862 286.887 594.982 298.018 606.113 309.148 613 324.523 613 341.5 613 358.487 606.113 373.862 594.982 384.982 583.852 396.113 568.477 403 551.5 403 534.513 403 519.138 396.113 508.018 384.982 496.887 373.862 490 358.487 490 341.5 490 324.513 496.887 309.138 508.018 298.018 519.138 286.887 534.513 280 551.5 280L551.5 280ZM583.561 309.439C575.353 301.231 564.022 296.156 551.5 296.156 538.978 296.156 527.647 301.231 519.439 309.439 511.231 317.647 506.156 328.978 506.156 341.5 506.156 354.022 511.231 365.353 519.439 373.561 527.647 381.769 538.978 386.844 551.5 386.844 564.022 386.844 575.353 381.769 583.561 373.561 591.769 365.353 596.844 354.022 596.844 341.5 596.844 328.978 591.769 317.647 583.561 309.439L583.561 309.439ZM555.514 336.825C554.493 335.804 553.082 335.174 551.5 335.174 549.928 335.174 548.507 335.804 547.486 336.825L547.476 336.835C546.455 337.856 545.824 339.268 545.824 340.849 545.824 342.421 546.455 343.842 547.476 344.863L547.486 344.873C548.507 345.894 549.918 346.525 551.5 346.525 553.072 346.525 554.493 345.894 555.514 344.873L555.524 344.863C556.545 343.842 557.176 342.421 557.176 340.849 557.166 339.268 556.535 337.856 555.514 336.825L555.514 336.825 555.514 336.825ZM555.124 330.84C556.595 331.38 557.926 332.231 559.017 333.322L559.017 333.322 559.017 333.322C559.388 333.692 559.738 334.093 560.048 334.523L560.148 334.493 581.189 328.858C579.557 325.024 577.205 321.571 574.302 318.678 569.267 313.643 562.571 310.26 555.114 309.429L555.114 330.569C555.134 330.659 555.134 330.75 555.124 330.84L555.124 330.84ZM562.11 341.69C561.97 343.422 561.42 345.043 560.539 346.455 560.589 346.515 560.629 346.585 560.669 346.655L572.751 365.804C573.291 365.333 573.812 364.843 574.322 364.332 580.158 358.497 583.771 350.419 583.771 341.51 583.771 339.638 583.611 337.806 583.301 336.015L562.11 341.69 562.11 341.69ZM554.633 351.019C553.642 351.33 552.591 351.49 551.5 351.49 550.519 351.49 549.568 351.36 548.657 351.109L536.866 370.278C541.26 372.52 546.235 373.781 551.5 373.781 556.965 373.781 562.11 372.42 566.625 370.028L554.633 351.019 554.633 351.019ZM542.621 346.705C541.7 345.324 541.1 343.712 540.92 341.99L540.91 341.99 519.799 335.384C519.419 337.366 519.219 339.408 519.219 341.5 519.219 350.409 522.832 358.487 528.668 364.322 529.298 364.953 529.959 365.563 530.65 366.144L542.461 346.935C542.521 346.865 542.571 346.785 542.621 346.705L542.621 346.705ZM542.771 334.773C543.132 334.263 543.532 333.772 543.983 333.332L543.983 333.332 543.983 333.332C545.034 332.291 546.295 331.46 547.696 330.92 547.686 330.81 547.676 330.689 547.676 330.579L547.676 309.459C540.289 310.33 533.663 313.693 528.678 318.688 525.925 321.44 523.663 324.694 522.041 328.297L542.771 334.773 542.771 334.773Z" fill="#FFFFFF"/></g></svg>